<?xml version="1.0" standalone="no"?>
<!DOCTYPE svg PUBLIC "-//W3C//DTD SVG 20010904//EN"
 "http://www.w3.org/TR/2001/REC-SVG-20010904/DTD/svg10.dtd">
<svg version="1.0" xmlns="http://www.w3.org/2000/svg"
 width="260.000000pt" height="260.000000pt" viewBox="0 0 260.000000 260.000000"
 preserveAspectRatio="xMidYMid meet">
<metadata>
Created by potrace 1.14, written by Peter Selinger 2001-2017
</metadata>
<g transform="translate(0.000000,260.000000) scale(0.100000,-0.100000)"
fill="#000000" stroke="none">
<path d="M1516 2536 c446 -223 797 -574 1020 -1020 l64 -130 0 607 0 607 -607
0 -607 0 130 -64z"/>
<path d="M380 2383 c-93 -9 -204 -26 -287 -45 l-93 -21 0 -636 0 -636 260
-260 260 -260 0 933 0 932 -52 -2 c-29 0 -69 -3 -88 -5z"/>
<path d="M838 2323 c3 -21 51 -317 107 -658 l102 -620 -261 -262 -261 -263
933 0 932 0 0 33 c0 17 -5 82 -10 142 -33 349 -154 659 -367 948 l-66 88 77
181 c42 100 75 183 73 185 -2 2 -85 -31 -185 -73 l-181 -77 -88 66 c-212 156
-420 256 -662 318 -152 38 -151 38 -143 -8z"/>
<path d="M0 263 l0 -258 255 255 c140 140 255 256 255 257 0 2 -115 3 -255 3
l-255 0 0 -257z"/>
<path d="M520 255 l0 -255 262 0 263 0 -255 255 c-140 140 -258 255 -262 255
-5 0 -8 -115 -8 -255z"/>
<path d="M1725 109 c-330 -54 -609 -100 -620 -102 -11 -2 257 -5 596 -6 l616
-1 21 94 c26 114 27 116 5 115 -10 -1 -288 -45 -618 -100z"/>
</g>
</svg>
